{
  "accessors": [
    {
      "bufferView": 0,
      "byteOffset": 0,
      "componentType": 5123,
      "count": 5490,
      "type": "SCALAR",
      "max": [4563],
      "min": [0]
    },
    {
      "bufferView": 1,
      "byteOffset": 0,
      "componentType": 5126,
      "count": 4564,
      "type": "VEC3",
      "max": [4.253840446472168, 7.480985164642334, 4.269556999206543],
      "min": [-4.269557476043701, -6.965183258056641, -4.253840446472168],
      "name": "POSITION"
    },
    {
      "bufferView": 1,
      "byteOffset": 12,
      "componentType": 5126,
      "count": 4564,
      "type": "VEC3",
      "max": [1.0000044107437134, 1.0000044107437134, 1.0000044107437134],
      "min": [-1.0000044107437134, -1.0000044107437134, -1.0000044107437134],
      "name": "NORMAL"
    },
    {
      "bufferView": 1,
      "byteOffset": 24,
      "componentType": 5126,
      "count": 4564,
      "type": "VEC2",
      "max": [0.9290533661842346, 1],
      "min": [0, -0.002711057662963867],
      "name": "TEXCOORD_0"
    },
    {
      "bufferView": 0,
      "byteOffset": 10980,
      "componentType": 5123,
      "count": 2688,
      "type": "SCALAR",
      "max": [2213],
      "min": [0]
    },
    {
      "bufferView": 2,
      "byteOffset": 0,
      "componentType": 5126,
      "count": 2214,
      "type": "VEC3",
      "max": [5.2255754470825195, 0.6120715737342834, 5.2255754470825195],
      "min": [-5.2255754470825195, -0.6120715737342834, -5.2255754470825195],
      "name": "POSITION"
    },
    {
      "bufferView": 2,
      "byteOffset": 12,
      "componentType": 5126,
      "count": 2214,
      "type": "VEC3",
      "max": [1.0000044107437134, 0.9796552658081055, 1.0000044107437134],
      "min": [-1.0000044107437134, -0.9796552062034607, -1.0000044107437134],
      "name": "NORMAL"
    },
    {
      "bufferView": 2,
      "byteOffset": 24,
      "componentType": 5126,
      "count": 2214,
      "type": "VEC2",
      "max": [0.9655861854553223, 0.962977945804596],
      "min": [0.250048965215683, 0.608084499835968],
      "name": "TEXCOORD_0"
    }
  ],
  "asset": { "generator": "Aspose.3D 22.1", "version": "2.0" },
  "buffers": [
    {
      "uri": "data:application/octet-stream;base64,",
      "byteLength": 278064
    }
  ],
  "bufferViews": [
    { "buffer": 0, "byteOffset": 0, "byteLength": 16356, "target": 34963 },
    {
      "buffer": 0,
      "byteOffset": 16360,
      "byteLength": 175680,
      "byteStride": 32,
      "target": 34962
    },
    {
      "buffer": 0,
      "byteOffset": 192044,
      "byteLength": 86016,
      "byteStride": 32,
      "target": 34962
    }
  ],
  "images": [
    {
      "uri": "data:image/png;base64,"
    }
  ],
  "materials": [
    {
      "name": "Material",
      "pbrMetallicRoughness": {
        "baseColorFactor": [1, 1, 1, 1],
        "baseColorTexture": { "index": 0, "texCoord": 0 },
        "metallicFactor": 0,
        "roughnessFactor": 0.4000000059604645
      },
      "emissiveFactor": [0, 0, 0],
      "alphaMode": "OPAQUE",
      "doubleSided": true
    },
    {
      "name": "Material",
      "pbrMetallicRoughness": {
        "baseColorFactor": [1, 1, 1, 1],
        "baseColorTexture": { "index": 0, "texCoord": 0 },
        "metallicFactor": 0,
        "roughnessFactor": 0.4000000059604645
      },
      "emissiveFactor": [0, 0, 0],
      "alphaMode": "OPAQUE",
      "doubleSided": true
    }
  ],
  "meshes": [
    {
      "primitives": [
        {
          "attributes": { "POSITION": 1, "NORMAL": 2, "TEXCOORD_0": 3 },
          "indices": 0,
          "material": 0,
          "mode": 4
        }
      ]
    },
    {
      "primitives": [
        {
          "attributes": { "POSITION": 5, "NORMAL": 6, "TEXCOORD_0": 7 },
          "indices": 4,
          "material": 1,
          "mode": 4
        }
      ]
    }
  ],
  "nodes": [
    { "mesh": 0, "name": "Inner" },
    { "mesh": 1, "name": "Outer" },
    { "children": [0, 1], "name": "Armature" }
  ],
  "samplers": [
    { "magFilter": 9729, "minFilter": 9987, "wrapS": 10497, "wrapT": 10497 }
  ],
  "scene": 0,
  "scenes": [{ "nodes": [2] }],
  "textures": [{ "sampler": 0, "source": 0 }]
}
