
<svg
   fill="currentColor"
   viewBox="0 0 24 23"
   version="1.1"
   id="svg134"
   width="24"
   height="23"
   xmlns="http://www.w3.org/2000/svg">
  <defs
     id="defs138" />
  <path
     d="m 13,0 h -2 v 6 h 2 z M 0,10 v 2 h 7 v -2 z m 24,0 v 2 H 17 V 10 Z M 13,23 h -2 v -7 h 2 z M 9,6 h 6 V 8 H 9 Z M 7,8 h 2 v 6 H 7 Z m 2,8 v -2 h 6 v 2 z m 8,-2 H 15 V 8 h 2 z M 17,4 h 2 v 2 h -2 z m -1,3 1,1 H 15 V 6 Z m 3,11 h -2 v -2 h 2 z m -3,-3 -1,1 v -2 h 2 z M 8,7 7,8 H 9 V 6 Z m 0,8 1,1 V 14 H 7 Z M 21,0 h 2 v 2 h -2 z m 0,2 V 4 H 19 V 2 Z M 3,22 H 1 v -2 h 2 v -2 c 2.1387123,-0.153625 2,-0.0074 2,2 H 3 Z m 18,-4 h -2 v 2 h 2 v 2 h 2 v -2 h -2 z"
     id="path132" />
</svg>
